<svg xmlns="http://www.w3.org/2000/svg" xmlns:xlink="http://www.w3.org/1999/xlink" width="249.001" height="266.526" viewBox="0 0 249.001 266.526">
  <defs>
    <clipPath id="clip-path">
      <path id="Path_339" data-name="Path 339" d="M682.608,485.295a101.193,101.193,0,0,0,101-101c0-55.628-45.37-142.037-101-142.037s-101,86.409-101,142.037A101.194,101.194,0,0,0,682.608,485.295Z" transform="translate(-581.61 -242.26)"/>
    </clipPath>
  </defs>
  <g id="Group_118" data-name="Group 118" transform="translate(4.607 -641.286)">
    <g id="Untitled-3" transform="translate(-4.607 641.286)">
      <circle id="Ellipse_155" data-name="Ellipse 155" cx="100.998" cy="100.998" r="100.998" transform="matrix(0.963, -0.27, 0.27, 0.963, 0, 72.004)" fill="#ffb001"/>
      <g id="Group_57" data-name="Group 57" transform="translate(23.456 0)">
        <g id="Group_56" data-name="Group 56" clip-path="url(#clip-path)">
          <g id="Group_51" data-name="Group 51" transform="translate(24.448 16.651)">
            <g id="Group_48" data-name="Group 48" transform="translate(118.084 153.678)">
              <path id="Path_299" data-name="Path 299" d="M773.812,492.288S755.55,429.254,749.3,419.494s-19.388-14.711-26.459-.467,38.695,78.952,38.695,78.952Z" transform="translate(-722.098 -410.147)" fill="#e7baa8" fill-rule="evenodd"/>
              <path id="Path_300" data-name="Path 300" d="M727.254,417.188a17.572,17.572,0,0,1,5.57-6.868c-3.734.659-7.295,3.3-9.983,8.7-7.071,14.244,38.695,78.952,38.695,78.952l4.312-2C763.433,492.569,720.375,431.037,727.254,417.188Z" transform="translate(-722.098 -410.144)" fill="#d68982" fill-rule="evenodd"/>
              <g id="Group_47" data-name="Group 47" transform="translate(32.984 71.713)">
                <g id="Group_46" data-name="Group 46">
                  <path id="Path_301" data-name="Path 301" d="M758.9,484.066a12.175,12.175,0,0,0-2.952,4.91,24.167,24.167,0,0,0-1.278,9.07c.4,3.612,2.141,14.2,4.586,15.989s1.643-7.467,1.512-9.364a7.368,7.368,0,0,1,.487-3.236s3.48,21.072,5.57,22.269,1.319-10.988,1.106-14c0,0,3.5,15.736,5.073,16.07,3.145.68-.233-16.892-.233-16.892s3.622,13.088,5.752,12.428c2.262-.7-1.654-14.7-1.654-14.7s3.6,8.187,5.7,8.461-4.15-17.5-5.438-20.118-4.18-9.953-6.422-13.037C769.179,479.805,762.7,480.911,758.9,484.066Z" transform="translate(-754.609 -480.832)" fill="#e7baa8"/>
                </g>
              </g>
            </g>
            <path id="Path_302" data-name="Path 302" d="M639.419,286.479s-18.343,27.119,2,65.114c10.673,19.936,7.457-7.579,3.338,3.216S672.2,371.66,672.2,371.66h27.646l12.043-7.183s38.431-50.9,9.141-86.876c-12.651-15.543-26.723-11.84-26.723-11.84C656.189,241.737,639.419,286.479,639.419,286.479Z" transform="translate(-605.328 -258.672)" fill="#6c0d0f" fill-rule="evenodd"/>
            <path id="Path_303" data-name="Path 303" d="M724.329,311.571c-1.968,1.887.741,12.844-3.926,20.331s-12.124,11.982-14.194,5.895,5.357-18.668,8.431-25.171-2.7-11.911-8.593-14.731-9.111-15.391-9.111-15.391c4.89,5.479,14.275,7.883,10.095,4.221s-11.17-13.757-3.561-10.44,24.927,28.367,21.488,19.4S701.136,258.6,691.8,270.391s-35.611,12.651-24.927,14.731,24.684-11.17,20.139-3.2-23.335,14-32.536,16.821-5.773,12.4-3.074,23.74-5.895,17.886-10.44,11.627-2.577-21.732-5.651-14.863c-1.167,2.618-1.025,9.486-.335,17a85.073,85.073,0,0,0,6.4,15.2,41.977,41.977,0,0,0,2.983,4.9,5.753,5.753,0,0,1,.355-1.684c3.673-9.628,6.625,11.231-.355,1.684-.112,2.181,1.238,4.15,3.378,5.895,6.29-.183,14.2-.436,16.669-.507,4.18-.122,46.659-1.968,47.876-1.968a18.094,18.094,0,0,0,3.023-.538,123.157,123.157,0,0,0,11.434-22.979C729.107,321.372,726.3,309.684,724.329,311.571Z" transform="translate(-605.29 -258.543)" fill="#59080c" fill-rule="evenodd"/>
            <path id="Path_304" data-name="Path 304" d="M642.132,345.4s-41.556,79.693-35.895,86.906c0,0,8.035,18.465,27.748,20.859S642.132,345.4,642.132,345.4Z" transform="translate(-605.708 -257.411)" fill="#c62026" fill-rule="evenodd"/>
            <path id="Path_305" data-name="Path 305" d="M620.54,408.79s-9.73,8.451-9.73,16.8A19.229,19.229,0,0,0,627.834,444.3c10.683,1.349,19.885-7.924,17.826-21.356S620.54,408.79,620.54,408.79Z" transform="translate(-605.633 -256.489)" fill="#b21924" fill-rule="evenodd"/>
            <g id="Group_50" data-name="Group 50" transform="translate(22.211 1.871)">
              <path id="Path_306" data-name="Path 306" d="M681.168,305.78h0a11.734,11.734,0,0,1,11.7,11.7v22.4a11.734,11.734,0,0,1-11.7,11.7h0a11.734,11.734,0,0,1-11.7-11.7v-22.4A11.734,11.734,0,0,1,681.168,305.78Z" transform="translate(-626.992 -259.858)" fill="#e6b5a3" fill-rule="evenodd"/>
              <path id="Path_307" data-name="Path 307" d="M720.758,345.4s41.556,79.693,35.895,86.906c0,0-8.035,18.465-27.748,20.859S720.758,345.4,720.758,345.4Z" transform="translate(-626.294 -259.282)" fill="#c62026" fill-rule="evenodd"/>
              <path id="Path_308" data-name="Path 308" d="M721.305,404.93l-3.865,6.453c.365,22.574,3.094,41.931,11.475,40.917a32.061,32.061,0,0,0,6.361-1.43Z" transform="translate(-626.294 -258.416)" fill="#b21924" fill-rule="evenodd"/>
              <path id="Path_309" data-name="Path 309" d="M728.446,448.58c-.3-10.064-6.037-41.749-6.037-41.749,3.247-13.757-.335-61.339-.345-61.35-8.421-1.715-16.243-2.891-20.017-4.251s-5.6-2-6.524-.964c0,0-4.941,7.092-13.575,7.092s-13.575-7.092-13.575-7.092c-.923-1.035-2.749-.4-6.524.964s-11.6,2.536-20.017,4.251c-.01,0-3.591,47.592-.345,61.35,0,0-5.732,31.684-6.036,41.749s-8.8,26.277-7.741,28.245c0,0,19.865,14.082,54.248,13.037,34.383,1.045,54.248-13.037,54.248-13.037C737.242,474.857,728.75,458.645,728.446,448.58Z" transform="translate(-627.6 -259.364)" fill="#c62026" fill-rule="evenodd"/>
              <path id="Path_310" data-name="Path 310" d="M678.427,343.256s8.532,12.4,10.744,25.293.649,23.822,1.613,24.927,17.176-1.228,21.1-6.635-12.6-40.034-19.013-46.416S675.606,338.639,678.427,343.256Z" transform="translate(-626.868 -259.4)" fill="#b21924" fill-rule="evenodd"/>
              <path id="Path_311" data-name="Path 311" d="M640.931,466.863c0-2.7,26.957-93.612,28.012-96.565s4.251-18.749,4.251-18.749l-18.516,11.911s-10.8,25.79-12.53,28.975c-.213.406-.883,1.41-1.877,2.861a65.613,65.613,0,0,0,1.2,11.343s-5.732,31.684-6.037,41.749-8.8,26.277-7.741,28.245c0,0,7.68,5.438,21.742,9.3C645.659,481.96,640.931,469.572,640.931,466.863Z" transform="translate(-627.601 -259.192)" fill="#b21924" fill-rule="evenodd"/>
              <path id="Path_312" data-name="Path 312" d="M682.618,356.845c17.684-1.106,17.785-12.8,17.785-12.8s-.568-1.674-1.4-3.723c-2.08-.67-3.247-.822-3.926-.051,0,0-4.941,7.092-13.575,7.092s-13.575-7.092-13.575-7.092c-.923-1.035-2.75-.4-6.524.964a35.357,35.357,0,0,1-3.764,1.045h0C659.263,349.074,664.935,357.951,682.618,356.845Z" transform="translate(-627.164 -259.364)" fill="#b21924" fill-rule="evenodd"/>
              <path id="Path_313" data-name="Path 313" d="M680.367,340.345s8.532,12.4,10.744,25.293.649,23.822,1.613,24.927,17.176-1.228,21.1-6.635-12.6-40.034-19.013-46.416S677.536,335.729,680.367,340.345Z" transform="translate(-626.84 -259.442)" fill="#ffb001" fill-rule="evenodd"/>
              <path id="Path_314" data-name="Path 314" d="M695.017,390.576c-.964-1.106.6-12.033-1.613-24.927s-10.744-25.293-10.744-25.293c-1.674-2.739,1.461-5.458,5.621-5.9-5.195-.528-9.9,2.678-7.924,5.9,0,0,8.532,12.4,10.744,25.293s.649,23.822,1.613,24.927c.233.264,1.319.325,2.891.213A1.185,1.185,0,0,1,695.017,390.576Z" transform="translate(-626.84 -259.442)" fill="#ec6000" fill-rule="evenodd"/>
              <path id="Path_315" data-name="Path 315" d="M699.893,344.7H688.946s-2.313,1.167-4.616,2.354a79.348,79.348,0,0,1,4.048,8.938c.3-.071.619-.152.933-.254C699.376,352.725,699.893,344.72,699.893,344.7Z" transform="translate(-626.775 -259.292)" fill="#ec6000" fill-rule="evenodd"/>
              <path id="Path_316" data-name="Path 316" d="M697.993,336.09a8.878,8.878,0,0,0-2.029-6.27l-14.691,3.409-14.691-3.419a8.878,8.878,0,0,0-2.029,6.27s-2.445,4.789-2.344,8.106,7.284,9.577,19.073,9.577,18.982-6.26,19.074-9.577C700.428,340.879,697.993,336.09,697.993,336.09Z" transform="translate(-627.097 -259.509)" fill="#ffb001" fill-rule="evenodd"/>
              <path id="Path_317" data-name="Path 317" d="M696.28,330.287a5.974,5.974,0,0,0-.365-.477l-14.681,3.419-14.691-3.419a9.61,9.61,0,0,0-1.664,3.013c3.267,2.4,9.9,6.453,16.923,5.8A19.854,19.854,0,0,0,696.28,330.287Z" transform="translate(-627.058 -259.509)" fill="#ec6000" fill-rule="evenodd"/>
              <path id="Path_318" data-name="Path 318" d="M681.346,337.785c-13.138,0-24.1-16.212-24.1-29.006v-17a24.17,24.17,0,0,1,24.1-24.1h0a24.17,24.17,0,0,1,24.1,24.1v16.639C705.431,322.445,695.874,337.785,681.346,337.785Z" transform="translate(-627.169 -260.412)" fill="#e7baa8" fill-rule="evenodd"/>
              <path id="Path_319" data-name="Path 319" d="M705.431,291.631a23.967,23.967,0,0,0-4.545-14.031,20.763,20.763,0,0,0-4.789.527c-13.5,2.891-13.007-.578-22.736,5.326s-13.24,9-13.686,11.921-2.435,11.119-2.435,11.119,18.5-4.444,27.89-11.7,10.3-8.857,10.3-8.857,2.932,16.294,10,22.411v-16.72Z" transform="translate(-627.169 -260.268)" fill="#d68982" fill-rule="evenodd"/>
              <path id="Path_320" data-name="Path 320" d="M680.418,302.94s-.619,6.858-3.074,8.766.061,2.577,3.074.923S683.614,306.146,680.418,302.94Z" transform="translate(-626.891 -259.899)" fill="#f0d3c8" fill-rule="evenodd"/>
              <path id="Path_321" data-name="Path 321" d="M711.414,298.88l-2.222,5.539s-3.683-.375-3.683,4.19a65.133,65.133,0,0,1-8.837-26.013,93.4,93.4,0,0,1-39.344,24.146s-1.217-3.957-3.733-2.607c0,0-3.419-19.784,1.978-28.052s11.87-16.547,23.385-15.472C690.454,261.7,712.4,271.761,711.414,298.88Z" transform="translate(-627.238 -260.517)" fill="#6c0d0f" fill-rule="evenodd"/>
              <g id="Group_49" data-name="Group 49" transform="translate(25.739 7.136)">
                <path id="Path_322" data-name="Path 322" d="M708.56,304.1l1.37-3.429a23.96,23.96,0,0,0-4.789-2.993c-5.894-2.82-9.111-15.391-9.111-15.391a65.4,65.4,0,0,0,8.837,26.013C704.867,303.727,708.56,304.1,708.56,304.1Z" transform="translate(-652.343 -267.336)" fill="#59080c" fill-rule="evenodd"/>
                <path id="Path_323" data-name="Path 323" d="M696.656,282.5c4.89,5.479,14.275,7.883,10.095,4.221s-11.17-13.757-3.561-10.44a17.052,17.052,0,0,1,3.957,2.749,34.335,34.335,0,0,0-10.2-11.485,6.81,6.81,0,0,0-5.418,2.841c-9.334,11.789-35.611,12.651-24.927,14.731s24.684-11.17,20.139-3.2-23.335,14-32.536,16.821a11.673,11.673,0,0,0-1.238.457c.294,2.9.629,4.819.629,4.819,2.516-1.349,3.734,2.607,3.734,2.607A93.371,93.371,0,0,0,696.656,282.5Z" transform="translate(-652.97 -267.55)" fill="#59080c" fill-rule="evenodd"/>
              </g>
              <path id="Path_324" data-name="Path 324" d="M664.375,298.1a1.009,1.009,0,1,0,1.288,1.552,6.623,6.623,0,0,1,5.854-1.2,1.019,1.019,0,0,0,.6-1.948A8.767,8.767,0,0,0,664.375,298.1Z" transform="translate(-627.071 -259.998)" fill="#8e1a20" fill-rule="evenodd"/>
            </g>
          </g>
          <path id="Path_325" data-name="Path 325" d="M664.919,345.537a9.978,9.978,0,0,1,1.025-4.779s2.273,2.82,14.214,2.577,17.278-7.244,12.276-4.423-15.32,3.622-20.352,1.968a16.672,16.672,0,0,1-7.538-4.88s-2.445,4.789-2.344,8.106c.091,3.206,6.838,9.151,17.947,9.537C674.963,353.156,665.193,347.627,664.919,345.537Z" transform="translate(-580.438 -240.896)" fill="#ec6000" fill-rule="evenodd"/>
          <path id="Path_326" data-name="Path 326" d="M681.354,310.04a120.808,120.808,0,0,0-22.858,2.313,2.211,2.211,0,0,0-1.8,2.638c4.89,20.484,22.026,23.03,24.39,23.284a2.382,2.382,0,0,0,.538,0c2.364-.254,19.5-2.8,24.39-23.284a2.211,2.211,0,0,0-1.8-2.638A121.912,121.912,0,0,0,681.354,310.04Z" transform="translate(-580.518 -241.274)" fill="#fff" fill-rule="evenodd"/>
          <g id="Group_52" data-name="Group 52" transform="translate(83.649 78.042)">
            <path id="Path_327" data-name="Path 327" d="M680.132,334.216c.254-.771,7.264-7.112,5.976-8.969s-8.664,3.815-9.79,5.357c-.487.67-1.217,1.928-1.9,3.135.315-1.725.761-4.16.862-4.677.152-.822,5.57-8.1,4.231-9.689s-8.3,7.315-8.969,8.553a38.283,38.283,0,0,0-1.684,5.641,29.234,29.234,0,0,0,9.77,4.19C679.279,336.275,680,334.621,680.132,334.216Z" transform="translate(-663.99 -319.183)" fill="#f4dcb1"/>
            <path id="Path_328" data-name="Path 328" d="M678.87,337.611a18.4,18.4,0,0,0,1.887.3,2.387,2.387,0,0,0,.538,0,26.913,26.913,0,0,0,7.325-2.019C687.372,334.618,681.467,336.525,678.87,337.611Z" transform="translate(-663.845 -318.946)" fill="#f4dcb1"/>
            <path id="Path_329" data-name="Path 329" d="M668.849,333.519c.081-1.177.264-3.916.426-4.565.2-.822,3.2-8.1,2.161-9.222s-6.189,7.011-6.96,8.867c-.081.183-.223.467-.416.832A28.606,28.606,0,0,0,668.849,333.519Z" transform="translate(-664.06 -319.176)" fill="#f4dcb1"/>
          </g>
          <path id="Path_330" data-name="Path 330" d="M670.265,310.61c-5.154.517-9.354,1.258-11.769,1.745a2.211,2.211,0,0,0-1.8,2.638A31.322,31.322,0,0,0,664.99,330.4c-1.126-4.971-2.161-10.186-2.141-12.5C662.92,312.933,670.062,310.671,670.265,310.61Z" transform="translate(-580.518 -241.266)" fill="#f4dcb1" fill-rule="evenodd"/>
          <g id="Group_53" data-name="Group 53" transform="translate(84.197 60.654)">
            <ellipse id="Ellipse_156" data-name="Ellipse 156" cx="2.303" cy="3.084" rx="2.303" ry="3.084" transform="translate(2.283 0.259)" fill="#6c0d0f"/>
            <path id="Path_331" data-name="Path 331" d="M664.6,303.866h9.161A6.737,6.737,0,0,0,664.6,303.866Z" transform="translate(-664.6 -302.044)" fill="#d68982" fill-rule="evenodd"/>
          </g>
          <path id="Path_332" data-name="Path 332" d="M697.741,298.1a1.009,1.009,0,1,1-1.289,1.552,6.623,6.623,0,0,0-5.854-1.2,1.019,1.019,0,0,1-.6-1.948A8.767,8.767,0,0,1,697.741,298.1Z" transform="translate(-580.044 -241.476)" fill="#6c0d0f" fill-rule="evenodd"/>
          <g id="Group_54" data-name="Group 54" transform="translate(108.303 60.654)">
            <path id="Path_333" data-name="Path 333" d="M690.6,305.384c0,1.7,1.035,3.084,2.3,3.084s2.3-1.38,2.3-3.084-1.035-3.084-2.3-3.084S690.6,303.68,690.6,305.384Z" transform="translate(-688.327 -302.041)" fill="#6c0d0f" fill-rule="evenodd"/>
            <path id="Path_334" data-name="Path 334" d="M697.521,303.866H688.36A6.741,6.741,0,0,1,697.521,303.866Z" transform="translate(-688.36 -302.044)" fill="#d68982" fill-rule="evenodd"/>
          </g>
          <g id="Group_55" data-name="Group 55" transform="translate(75.771 84.745)">
            <path id="Path_335" data-name="Path 335" d="M662.864,336.828s-2.4-11.038-5.894-11.038c-1.958,0,1.075,8.644,0,13.747-.944,4.454-.477,9.993,2.029,10.308S662.864,336.828,662.864,336.828Z" transform="translate(-656.295 -325.79)" fill="#d68982"/>
          </g>
          <path id="Path_336" data-name="Path 336" d="M656.883,352.21s-36.747,54.37-40.247,65.428,1.106,24.319,16.578,20.626S669.108,358,669.108,358Z" transform="translate(-581.117 -240.661)" fill="#e7baa8" fill-rule="evenodd"/>
          <path id="Path_337" data-name="Path 337" d="M669.111,357.972a5.163,5.163,0,0,0,1.39-.649,11.575,11.575,0,0,0,2.912-2.942c-2.962,3.734-9.628,2.12-9.628,2.12l3.561,1.786s-23.365,65.631-33.49,72.256a13.893,13.893,0,0,1-17.826-1.481c1.593,6.737,7.061,11.586,17.186,9.182,15.472-3.693,35.895-80.271,35.895-80.271Z" transform="translate(-581.109 -240.629)" fill="#d68982" fill-rule="evenodd"/>
          <path id="Path_338" data-name="Path 338" d="M656.083,351.731c.893,6.209,10.247,8.624,13.838,6.108,5.631-3.947,5.053-10.44,5.468-11.525a20.491,20.491,0,0,1,3.2-4.231c.365-.254,9.587-3.865,8.715-5.976s-10.1,1.339-11.079,2.009a55.875,55.875,0,0,0-4.434,4.535l4.068-2.628s2.374-5.306,2.628-6.077,7.264-7.112,5.976-8.969-8.654,3.815-9.79,5.357-3.561,6.239-3.561,6.239l1.339-1.339s1.035-5.621,1.187-6.442,5.57-8.1,4.231-9.689-8.3,7.315-8.969,8.553a45.422,45.422,0,0,0-1.806,6.138s.254-4.281.467-5.1,3.2-8.1,2.161-9.222-6.189,7.011-6.96,8.867S654.561,341.159,656.083,351.731Z" transform="translate(-580.53 -241.145)" fill="#e7baa8"/>
        </g>
      </g>
      <path id="Path_340" data-name="Path 340" d="M654.02,314.14" transform="translate(-557.101 -241.214)" fill="none" stroke="#fff" stroke-miterlimit="10" stroke-width="1" fill-rule="evenodd"/>
    </g>
    <g id="virus" transform="translate(187.018 665.101)">
      <g id="Group_109" data-name="Group 109" transform="translate(33.164 29.23)">
        <path id="Path_465" data-name="Path 465" d="M710.3,399.744a8.9,8.9,0,1,1-8.91-8.894A8.9,8.9,0,0,1,710.3,399.744Z" transform="translate(-692.5 -390.85)" fill="#a158ed"/>
        <path id="Path_466" data-name="Path 466" d="M705.228,402.3a2.1,2.1,0,1,1-2.1,2.107A2.109,2.109,0,0,1,705.228,402.3Z" transform="translate(-694.417 -392.915)" fill="#8d3fd0"/>
        <path id="Path_467" data-name="Path 467" d="M698.989,394.31a3.144,3.144,0,1,1-3.139,3.148A3.141,3.141,0,0,1,698.989,394.31Z" transform="translate(-693.104 -391.474)" fill="#8d3fd0"/>
        <path id="Path_468" data-name="Path 468" d="M699.349,404.1a1.369,1.369,0,1,1-1.369,1.369A1.366,1.366,0,0,1,699.349,404.1Z" transform="translate(-693.488 -393.239)" fill="#8d3fd0"/>
      </g>
      <g id="Group_110" data-name="Group 110" transform="translate(0 0)">
        <path id="Path_469" data-name="Path 469" d="M686.389,378.69a3.333,3.333,0,0,0-.41,1.5c-.656-.057-1.312-.107-1.975-.139a12.287,12.287,0,0,1-7.8,6.9c-.016.869-.041,1.73-.09,2.6h-.025a1.763,1.763,0,0,0-.828.2c-.188-.82-.385-1.639-.59-2.451a12.174,12.174,0,0,1-8.689-1.885c-.328.238-.648.459-.984.689a1.371,1.371,0,0,0-.68-.59,10.433,10.433,0,0,0,.623-.861,12.21,12.21,0,0,1-4.32-7.689c-.631-.074-1.279-.139-1.926-.2a2,2,0,0,0,.156-.361,2.887,2.887,0,0,0,.082-1.533c.533-.148,1.049-.3,1.582-.434a12.111,12.111,0,0,1,1.6-5.32c-.549-.746-1.131-1.492-1.721-2.23a1.207,1.207,0,0,0,.68-.574c.648.475,1.312.943,1.959,1.426a12.255,12.255,0,0,1,9.713-4.8,12.467,12.467,0,0,1,2.787.32c.254-.566.5-1.131.738-1.7a3.009,3.009,0,0,0,1.435.664c-.1.549-.18,1.107-.262,1.656a12.206,12.206,0,0,1,6.533,6.385c.393-.139.787-.279,1.18-.434a2.435,2.435,0,0,0,.664.975c-.451.246-.9.508-1.353.754a12.3,12.3,0,0,1,.164,6.689C685.217,378.4,685.807,378.55,686.389,378.69Z" transform="translate(-653.242 -356.337)" fill="#a158ed"/>
        <path id="Path_470" data-name="Path 470" d="M691.989,383.563a3.231,3.231,0,0,1,.41-1.5,3.5,3.5,0,1,1-.41,1.648A.446.446,0,0,1,691.989,383.563Z" transform="translate(-659.243 -359.701)" fill="#8d3fd0"/>
        <path id="Path_471" data-name="Path 471" d="M690.948,370.94a2.461,2.461,0,0,1-.148-.82,2.41,2.41,0,1,1,2.41,2.41,2.385,2.385,0,0,1-1.6-.607A2.494,2.494,0,0,1,690.948,370.94Z" transform="translate(-659.029 -357.447)" fill="#8d3fd0"/>
        <path id="Path_472" data-name="Path 472" d="M681.345,361.067a2.991,2.991,0,1,1,.484.033A2.32,2.32,0,0,1,681.345,361.067Z" transform="translate(-656.878 -355.19)" fill="#8d3fd0"/>
        <path id="Path_473" data-name="Path 473" d="M680.019,380.22a1.971,1.971,0,1,1-1.959,1.975A1.975,1.975,0,0,1,680.019,380.22Z" transform="translate(-656.732 -359.703)" fill="#8d3fd0"/>
        <path id="Path_474" data-name="Path 474" d="M679.545,395.71a1.867,1.867,0,1,1-.853.2,1.763,1.763,0,0,1,.828-.2Z" transform="translate(-656.66 -362.496)" fill="#8d3fd0"/>
        <path id="Path_475" data-name="Path 475" d="M669.177,369.96a5.058,5.058,0,1,1-5.057,5.057A5.048,5.048,0,0,1,669.177,369.96Z" transform="translate(-654.219 -357.853)" fill="#8d3fd0"/>
        <path id="Path_476" data-name="Path 476" d="M672.375,385.54a1.611,1.611,0,1,1-1.615,1.615A1.606,1.606,0,0,1,672.375,385.54Z" transform="translate(-655.416 -360.662)" fill="#8d3fd0"/>
        <path id="Path_477" data-name="Path 477" d="M665.121,390.753a1.525,1.525,0,0,1,.91,1.361,1.475,1.475,0,1,1-1.475-1.484A1.459,1.459,0,0,1,665.121,390.753Z" transform="translate(-654.031 -361.58)" fill="#8d3fd0"/>
        <path id="Path_478" data-name="Path 478" d="M661.083,366.939a1.182,1.182,0,0,1-.68.574,1.136,1.136,0,0,1-.41.074,1.258,1.258,0,1,1,1.254-1.254A1.18,1.18,0,0,1,661.083,366.939Z" transform="translate(-653.247 -356.971)" fill="#8d3fd0"/>
        <path id="Path_479" data-name="Path 479" d="M657.745,377.291a2.886,2.886,0,0,1-.082,1.533,2.388,2.388,0,0,1-.156.361,2.88,2.88,0,1,1,.238-1.894Z" transform="translate(-652.041 -358.766)" fill="#8d3fd0"/>
      </g>
      <g id="Group_111" data-name="Group 111" transform="translate(9.991 37.632)">
        <path id="Path_480" data-name="Path 480" d="M672.648,405.3a4.209,4.209,0,1,1-4.213-4.205A4.2,4.2,0,0,1,672.648,405.3Z" transform="translate(-664.23 -401.1)" fill="#a158ed"/>
        <path id="Path_481" data-name="Path 481" d="M670.25,406.51a.992.992,0,1,1-1,.992A.99.99,0,0,1,670.25,406.51Z" transform="translate(-665.135 -402.075)" fill="#8d3fd0"/>
        <path id="Path_482" data-name="Path 482" d="M667.294,402.73a1.488,1.488,0,1,1-1.484,1.492A1.5,1.5,0,0,1,667.294,402.73Z" transform="translate(-664.515 -401.394)" fill="#8d3fd0"/>
        <path id="Path_483" data-name="Path 483" d="M667.468,407.36a.648.648,0,1,1-.648.648A.644.644,0,0,1,667.468,407.36Z" transform="translate(-664.697 -402.229)" fill="#8d3fd0"/>
      </g>
    </g>
    <g id="virus-2" data-name="virus" transform="translate(204.176 735.233)">
      <g id="Group_110-2" data-name="Group 110" transform="translate(0 0)">
        <path id="Path_469-2" data-name="Path 469" d="M677.178,372.988a2.225,2.225,0,0,0-.273,1c-.438-.038-.875-.071-1.318-.093a8.2,8.2,0,0,1-5.2,4.606c-.011.58-.027,1.154-.06,1.734h-.016a1.176,1.176,0,0,0-.552.131c-.126-.547-.257-1.094-.394-1.635a8.124,8.124,0,0,1-5.8-1.258c-.219.159-.432.306-.656.46a.915.915,0,0,0-.454-.394,6.942,6.942,0,0,0,.416-.574,8.148,8.148,0,0,1-2.883-5.131c-.421-.049-.853-.093-1.285-.137a1.324,1.324,0,0,0,.1-.241,1.926,1.926,0,0,0,.055-1.023c.356-.1.7-.2,1.056-.29a8.081,8.081,0,0,1,1.067-3.55c-.366-.5-.755-1-1.149-1.488a.806.806,0,0,0,.454-.383c.432.317.875.629,1.307.952a8.178,8.178,0,0,1,6.482-3.2,8.318,8.318,0,0,1,1.86.213c.17-.377.334-.755.492-1.138a2.008,2.008,0,0,0,.957.443c-.066.366-.12.738-.175,1.1a8.146,8.146,0,0,1,4.36,4.261c.263-.093.525-.186.788-.29a1.625,1.625,0,0,0,.443.651c-.3.164-.6.339-.9.5a8.208,8.208,0,0,1,.109,4.464C676.4,372.8,676.789,372.895,677.178,372.988Z" transform="translate(-655.057 -358.071)" fill="#a158ed"/>
        <path id="Path_470-2" data-name="Path 470" d="M691.987,382.447a2.157,2.157,0,0,1,.273-1,2.334,2.334,0,1,1-.273,1.1A.3.3,0,0,1,691.987,382.447Z" transform="translate(-670.134 -366.524)" fill="#8d3fd0"/>
        <path id="Path_471-2" data-name="Path 471" d="M690.9,369.865a1.643,1.643,0,0,1-.1-.547,1.608,1.608,0,1,1,1.608,1.608,1.592,1.592,0,0,1-1.067-.4A1.665,1.665,0,0,1,690.9,369.865Z" transform="translate(-669.599 -360.862)" fill="#8d3fd0"/>
        <path id="Path_472-2" data-name="Path 472" d="M680.522,359.112a2,2,0,1,1,.323.022A1.547,1.547,0,0,1,680.522,359.112Z" transform="translate(-664.195 -355.19)" fill="#8d3fd0"/>
        <path id="Path_473-2" data-name="Path 473" d="M679.367,380.22a1.316,1.316,0,1,1-1.307,1.318A1.318,1.318,0,0,1,679.367,380.22Z" transform="translate(-663.828 -366.529)" fill="#8d3fd0"/>
        <path id="Path_474-2" data-name="Path 474" d="M678.918,395.71a1.246,1.246,0,1,1-.569.131,1.177,1.177,0,0,1,.553-.131Z" transform="translate(-663.646 -373.546)" fill="#8d3fd0"/>
        <path id="Path_475-2" data-name="Path 475" d="M667.495,369.96a3.375,3.375,0,1,1-3.375,3.375A3.369,3.369,0,0,1,667.495,369.96Z" transform="translate(-657.513 -361.881)" fill="#8d3fd0"/>
        <path id="Path_476-2" data-name="Path 476" d="M671.838,385.54a1.075,1.075,0,1,1-1.078,1.078A1.071,1.071,0,0,1,671.838,385.54Z" transform="translate(-660.521 -368.939)" fill="#8d3fd0"/>
        <path id="Path_477-2" data-name="Path 477" d="M664.442,390.712a1.017,1.017,0,0,1,.607.908.985.985,0,1,1-.985-.99A.974.974,0,0,1,664.442,390.712Z" transform="translate(-657.042 -371.244)" fill="#8d3fd0"/>
        <path id="Path_478-2" data-name="Path 478" d="M660.3,366.317a.788.788,0,0,1-.454.383.757.757,0,0,1-.273.049.84.84,0,1,1,.837-.837A.787.787,0,0,1,660.3,366.317Z" transform="translate(-655.071 -359.666)" fill="#8d3fd0"/>
        <path id="Path_479-2" data-name="Path 479" d="M655.848,376.536a1.927,1.927,0,0,1-.055,1.023,1.589,1.589,0,0,1-.1.241,1.922,1.922,0,1,1,.159-1.264Z" transform="translate(-652.041 -364.173)" fill="#8d3fd0"/>
      </g>
    </g>
  </g>
</svg>
